<?xml version="1.0" encoding="utf-8"?>
<svg xmlns="http://www.w3.org/2000/svg" xmlns:xlink="http://www.w3.org/1999/xlink" version= "1.1" width="720px" height="1464px" viewBox="0 0 720 1464">
<g id="layer1">
<g style="fill:rgb(0,0,0); fill-opacity:1.0; stroke-linejoin: miter">
<path d="M-5.6608534,-292.02975L-5.747738,-292.02567C-7.9890714,-291.81506,-10.246908,-291.59207,-12.51791,-291.36496L-12.518035,-291.36496C-12.670435,-291.3569,-12.813866,-291.31192,-12.938917,-291.2383L-12.939046,-291.2383L-217.01512,-176.00461L-217.01697,-176.00461L-217.02324,-176.00108L-217.02321,-176.00108C-217.0282,-175.99829,-217.033,-175.99551,-217.033,-175.99551L-217.03313,-175.99551L-768.2535,133.17705C-768.3734,133.24431,-768.47363,133.33516,-768.5506,133.44121L-768.5583,133.44121C-783.248,148.36569,-797.0819,162.64148,-801.7465,179.02637C-806.4195,195.43901,-801.9916,214.33665,-797.1819,234.23726C-797.1478,234.37811,-797.083,234.50424,-796.996,234.60973L-797.00397,234.60973L-372.30856,989.7867C-372.14127,990.0842,-371.82867,990.2602,-371.49924,990.2602C-371.42117,990.2602,-371.34213,990.2503,-371.26385,990.2298C-370.85538,990.1228,-370.5705,989.7537,-370.5705,989.3315L-370.5705,989.3305C-370.5705,989.27454,-370.57556,989.21875,-370.5856,989.1637C-391.1433,876.5678,-411.16187,764.35736,-415.29373,669.03046C-419.5884,569.9461,-406.72314,489.16696,-391.81403,410.43353C-376.89865,331.6676,-359.86743,254.58975,-313.03668,153.72557C-313.03653,153.72523,-313.03638,153.7249,-313.03622,153.72456L-313.03662,153.72456C-266.25754,52.97077,-189.76028,-71.4856,-132.06372,-150.68948L-132.06374,-150.68948C-78.55858,-224.13937,-41.16464,-258.74838,-5.0487137,-290.40173C-4.84753,-290.57806,-4.732155,-290.83258,-4.732155,-291.1001L-4.732155,-291.1011C-4.732155,-291.61398,-5.147922,-292.02975,-5.6607966,-292.02975 Z"/>
</g>
<g style="fill:rgb(0,0,0); fill-opacity:1.0; stroke-linejoin: miter">
<path d="M112.771194,-205.22224C112.50931,-205.22224,112.2596,-205.11166,112.08358,-204.91776C17.817139,-101.06578,-75.82678,2.9777222,-144.68268,142.409C-214.51471,283.8167,-258.89746,461.7385,-271.40186,611.2785C-283.68988,758.23145,-265.19687,877.76855,-246.1295,997.15106C-246.05704,997.60474,-245.66544,997.9332,-245.2133,997.9332C-245.1887,997.9332,-245.16393,997.93225,-245.139,997.9303C-244.99979,997.91925,-244.86977,997.87787,-244.7552,997.813L-244.75717,997.813L-150.57014,944.8273L-150.52129,944.7977L-150.51978,944.79675C-150.20836,944.59546,-150.04657,944.22815,-150.10823,943.8625C-166.77316,845.0331,-183.23402,745.6204,-172.06102,616.9025C-160.7887,487.0402,-121.393005,327.3469,-60.53754,199.901C-0.13023762,73.39362,81.383675,-21.238594,162.79353,-115.33316L162.79192,-115.33316C163.07608,-115.62067,163.14726,-116.07065,162.94151,-116.43877L113.58293,-204.74669C113.41881,-205.04033,113.10871,-205.22224,112.772316,-205.22224 Z"/>
</g>
<g style="fill:rgb(0,0,0); fill-opacity:1.0; stroke-linejoin: miter">
<path d="M225.39922,-3.7162952C225.10944,-3.7162952,224.83626,-3.5810237,224.66061,-3.3505464C167.9011,71.126274,111.492004,145.88638,64.05999,245.39244L64.05953,245.39244C15.6353035,346.97964,-23.442902,474.39075,-39.145233,585.6296C-54.500893,694.41235,-47.514847,787.78735,-40.014908,881.1194C-39.976128,881.60187,-39.573273,881.97363,-39.08925,881.97363L-39.08917,881.97363C-38.929672,881.97363,-38.772865,881.93256,-38.633854,881.8544L82.7902,813.5459C82.88691,813.4915,82.97308,813.42017,83.04464,813.3354L83.04546,813.3344C83.20088,813.1502,83.2786,812.91284,83.2622,812.67236C77.46503,727.68854,71.90146,642.3216,85.07112,552.7552C98.42576,461.93073,131.01904,366.9119,157.98694,303.32074C184.99808,239.62766,206.42984,207.31644,227.79437,175.10994L227.79439,175.10992C227.94443,174.88374,228.11972,174.68748,228.31305,174.52203L228.31076,174.52203C228.36792,174.48036,228.4203,174.43219,228.4668,174.37831C229.00496,173.75471,229.79701,173.38577,230.63011,173.38577C230.8924,173.38577,231.16028,173.42233,231.42732,173.49974L231.45456,173.5071L231.45224,173.5071C232.16132,173.71962,232.7605,174.1992,233.12317,174.84532L233.12317,174.8453L294.15683,283.58304L294.1568,283.58304C294.81763,284.76038,294.55508,286.20776,293.6008,287.08505C293.4805,287.19565,293.39444,287.33295,293.3461,287.48172L293.34317,287.48172C273.14056,333.02557,253.02032,378.4338,236.89082,429.48337C220.7133,480.6848,208.54291,537.59094,202.43634,592.8353C196.60785,645.5639,196.29826,696.8031,196.24278,748.13104C196.24243,748.4611,196.41733,748.7666,196.7022,748.9334C196.84702,749.0182,197.0092,749.06067,197.17145,749.06067C197.32834,749.06067,197.4853,749.021,197.62674,748.9414L538.41565,557.224C538.86176,556.973,539.0207,556.4084,538.77094,555.96155L458.1367,411.6989C458.0072,411.46725,457.7848,411.30206,457.5256,411.24506L457.52103,411.24405C457.45493,411.2295,457.38803,411.22235,457.3215,411.22235C457.12357,411.22235,456.92886,411.28568,456.76724,411.4059C444.61584,420.44528,432.6043,429.6909,420.62302,441.947C407.27707,455.59927,394.094,472.865,386.68396,492.86963C379.25174,512.934,377.53586,535.9381,375.80255,559.45917C375.73175,560.4196,375.18164,561.27997,374.33957,561.74725L304.58276,600.4552L304.5828,600.4552C304.152,600.6942,303.6748,600.814,303.1965,600.814C302.7521,600.814,302.3068,600.71027,301.899,600.5023L301.89902,600.5023C301.0523,600.0706,300.47568,599.2462,300.36075,598.30255L300.3606,598.30133L300.3561,598.2649L300.35623,598.26587L300.33847,598.1203L300.32074,597.975C296.75943,568.7336,293.16696,539.0625,298.8877,505.27933C304.61874,471.4357,319.68857,433.4672,341.7563,404.95703C362.89465,377.64758,390.3703,359.1534,417.6993,341.28543L417.69513,341.28543C417.8779,341.18805,418.02502,341.03113,418.10965,340.83725C418.22577,340.57117,418.2108,340.2661,418.06915,340.0127L226.21208,-3.2407348C226.04796,-3.5343738,225.73787,-3.7162952,225.40147,-3.7162952 Z"/>
</g>
<g style="fill:rgb(255,255,255); fill-opacity:1.0; stroke-linejoin: miter">
<path d="M17.632229,-293.3817C14.161859,-293.3817,10.603629,-293.25208,6.982964,-293.03644L6.982894,-293.03644C6.763284,-293.0332,6.5517454,-292.9522,6.386021,-292.80765C-32.025806,-259.29657,-70.498535,-225.49992,-127.44549,-147.32529C-184.96274,-68.36758,-261.25864,55.771866,-307.85437,156.1306C-354.39755,256.3765,-371.32208,332.9281,-386.20007,411.49658C-401.08453,490.09958,-413.85126,570.364,-409.58536,668.78314C-405.3154,767.2971,-383.98306,884.0667,-362.5957,1001.1058C-362.5799,1001.1923,-362.5682,1001.27826,-362.56036,1001.3648C-362.5356,1001.6382,-362.39117,1001.88666,-362.16583,1002.0434C-362.14914,1002.055,-362.1321,1002.06604,-362.1148,1002.0765L-362.11844,1002.0765C-352.64297,1009.246,-343.1173,1015.5737,-331.6827,1018.5625C-324.87436,1020.3421,-317.36887,1020.9487,-309.4365,1020.9487C-301.2473,1020.9487,-292.55713,1020.3008,-283.68167,1019.6109C-283.6032,1019.6048,-283.52588,1019.58875,-283.45148,1019.5632L-283.44864,1019.5622C-283.39563,1019.54395,-283.34436,1019.52094,-283.2955,1019.49347L-251.7942,1001.7728L-251.79337,1001.7728C-251.45757,1001.58514,-251.26787,1001.2048,-251.32999,1000.8159C-270.55176,880.51587,-289.54214,759.6501,-277.09564,610.8024C-264.53983,460.64716,-219.99667,282.0135,-149.80573,139.87897C-80.13697,-1.198283,14.7532625,-106.20079,109.55028,-210.62688L109.550224,-210.62688C109.82767,-210.9198,109.885475,-211.36188,109.68628,-211.71825L79.53266,-265.66537L79.53187,-265.66537C79.47751,-265.78006,79.39871,-265.88528,79.2963,-265.97284C66.853096,-276.61295,54.908962,-286.65512,39.94462,-290.8036L39.94428,-290.8036C33.08817,-292.70425,25.570448,-293.3817,17.632229,-293.3817 Z"/>
</g>
<g style="fill:rgb(255,255,255); fill-opacity:1.0; stroke-linejoin: miter">
<path d="M166.05853,-109.8844C165.78893,-109.8844,165.53261,-109.76722,165.35622,-109.56332C84.50433,-16.102448,4.2209396,77.54128,-55.381496,202.36304C-115.90901,329.12207,-155.14879,488.13702,-166.36879,617.39655C-177.37283,744.1689,-161.42847,842.31396,-144.92703,940.22626C-144.85115,940.6764,-144.4611,941.0006,-144.01213,941.0006C-143.98622,941.0006,-143.96011,940.9995,-143.93385,940.9973C-143.78902,940.98517,-143.65424,940.94025,-143.5366,940.8702L-143.53804,940.8702L-45.900948,885.94354C-45.733204,885.8492,-45.598927,885.705,-45.51668,885.531L-45.51622,885.53C-45.4468,885.3832,-45.417118,885.22064,-45.43015,885.0587C-53.031857,790.58453,-60.447544,695.6614,-44.802826,584.831C-29.01624,472.99536,10.237389,345.02478,58.902332,242.93303C58.90235,242.93298,58.90237,242.93295,58.90239,242.9329L58.902348,242.9329C107.16011,141.69545,164.66098,65.93876,222.06784,-9.373433L222.06561,-9.373433C222.15024,-9.467854,222.21553,-9.579601,222.25606,-9.70262C222.33742,-9.949567,222.31151,-10.219309,222.18465,-10.446265L166.87079,-109.40884C166.70667,-109.70248,166.39658,-109.8844,166.06018,-109.8844 Z"/>
</g>
<g style="fill:rgb(255,255,255); fill-opacity:1.0; stroke-linejoin: miter">
<path d="M230.28809,182.44046C229.9766,182.44046,229.68585,182.59662,229.51385,182.85632C209.23746,213.47144,188.7811,245.34164,163.24716,305.55145C136.3916,368.8777,103.98382,463.40686,90.724014,553.58636C77.83968,641.2123,83.01056,724.8486,88.71747,808.68665C88.750626,809.17395,89.15556,809.55225,89.64397,809.55225L89.644035,809.55225C89.80353,809.55225,89.96034,809.51117,90.09935,809.433L190.04973,753.20496L190.04987,753.20496C190.3422,753.04144,190.52467,752.7322,190.52496,752.3954C190.57132,699.6693,190.72852,646.748,196.75726,592.20764C202.90535,536.5876,215.15378,479.31586,231.44264,427.762C247.66547,376.41718,267.88858,330.7743,288.05746,285.30753L288.0546,285.30753C288.07864,285.2655,288.09955,285.22137,288.11697,285.17545C288.21448,284.9184,288.19302,284.63135,288.05847,284.3916L231.10019,182.91457C230.93582,182.62173,230.62619,182.44046,230.29039,182.44046 Z"/>
</g>
<g style="fill:rgb(255,255,255); fill-opacity:1.0; stroke-linejoin: miter">
<path d="M420.95734,346.16217C420.77673,346.16217,420.60007,346.21484,420.44894,346.31372C393.2117,364.13287,366.67438,382.09912,346.27463,408.45438C324.85858,436.1225,310.11768,473.18414,304.52118,506.2333C299.289,537.131,302.0427,564.51764,305.3553,592.03046C305.41177,592.4994,305.81006,592.84814,306.27655,592.84814C306.29523,592.84814,306.314,592.8476,306.3329,592.84644C306.47684,592.8378,306.6115,592.7967,306.72995,592.73047L306.72784,592.73047L369.7753,557.7465L369.77734,557.7465C370.04758,557.59735,370.23108,557.3197,370.25455,557.00195C371.92996,534.3161,373.78815,511.23477,381.32605,490.88495C389.11304,469.86258,402.87134,451.93243,416.53726,437.9529C429.08105,425.1214,441.65338,415.5151,454.08206,406.28336L454.0775,406.28336C454.23895,406.18683,454.3694,406.04224,454.44827,405.86633C454.56842,405.59845,454.5548,405.28952,454.41156,405.03323L421.77216,346.63773C421.60803,346.3441,421.29794,346.16217,420.96155,346.16217 Z"/>
</g>
</g>
</svg>