<?xml version="1.0" encoding="utf-8"?>
<svg xmlns="http://www.w3.org/2000/svg" xmlns:xlink="http://www.w3.org/1999/xlink" version= "1.1" width="720px" height="1464px" viewBox="0 0 720 1464">
<g id="layer1">
<g style="fill:rgb(0,0,0); fill-opacity:1.0; stroke-linejoin: miter">
<path d="M231.68587,172.60782L231.68587,172.60782L231.68593,172.60783C232.63983,172.88435,233.44684,173.5247,233.93297,174.39078L233.93297,174.39078L294.9666,283.1285C295.9899,284.9516,295.34155,287.2591,293.51843,288.28238C291.6953,289.30566,289.38785,288.6573,288.36456,286.8342L288.36456,286.8342L227.3309,178.09647L229.57794,179.87941L229.57788,179.8794C227.56989,179.29729,226.41397,177.1976,226.9961,175.1896C227.57819,173.18161,229.67789,172.02571,231.68587,172.60782 Z"/>
</g>
<g style="fill:rgb(0,0,0); fill-opacity:1.0; stroke-linejoin: miter">
<path d="M17.632229,-293.3458C14.160614,-293.3458,10.606597,-293.21625,6.984355,-293.00052L6.984285,-293.00052C6.772859,-292.99762,6.569165,-292.91974,6.4096327,-292.78058C-32.00115,-259.27042,-70.47167,-225.4758,-127.41646,-147.30414C-184.93251,-68.348076,-261.22726,55.78956,-307.8218,156.14572C-354.36328,256.38794,-371.28702,332.93585,-386.1648,411.50327C-401.0492,490.10587,-413.8152,570.3664,-409.54947,668.78156C-405.2796,767.29297,-383.94794,884.0591,-362.56036,1001.0993C-362.5444,1001.18665,-362.5325,1001.27435,-362.5246,1001.3616C-362.5008,1001.6244,-362.36194,1001.8632,-362.14532,1002.0139C-362.12878,1002.02545,-362.11188,1002.0363,-362.09473,1002.04663L-362.09833,1002.04663C-352.6232,1009.216,-343.1015,1015.5408,-331.67365,1018.5278C-324.86966,1020.3063,-317.3669,1020.9128,-309.4365,1020.9128C-301.24698,1020.9128,-292.56198,1020.2651,-283.68445,1019.5751C-283.609,1019.5692,-283.5347,1019.55383,-283.46317,1019.52924L-283.46033,1019.52826C-283.40936,1019.51074,-283.36008,1019.4886,-283.3131,1019.46216L-251.81183,1001.7415L-251.8109,1001.7415C-251.4881,1001.56104,-251.30573,1001.1954,-251.36545,1000.8216C-270.5872,880.52167,-289.5783,759.6517,-277.13144,610.79944C-264.57532,460.64038,-220.0311,282.00208,-149.83792,139.86305C-80.16666,-1.2192792,14.726946,-106.22524,109.52372,-210.65105L109.52364,-210.65105C109.79078,-210.93265,109.84654,-211.35791,109.65493,-211.70071L79.500694,-265.64896L79.4999,-265.64896C79.44763,-265.7596,79.37172,-265.8611,79.272964,-265.94556C66.8289,-276.5864,54.890274,-286.62302,39.935024,-290.76898L39.93468,-290.76898C33.08283,-292.66846,25.568598,-293.3458,17.632229,-293.3458 Z"/>
</g>
<g style="fill:rgb(0,0,0); fill-opacity:1.0; stroke-linejoin: miter">
<path d="M166.05853,-109.84848C165.79935,-109.84848,165.55295,-109.73583,165.38338,-109.53982C84.53132,-16.07875,4.2509956,77.56169,-55.349083,202.37851C-115.874535,329.13324,-155.11334,488.14395,-166.33301,617.39966C-177.33662,744.1672,-161.39302,842.30817,-144.89162,940.2203C-144.81868,940.653,-144.44368,940.96466,-144.01207,940.96466C-143.98717,940.96466,-143.96208,940.9636,-143.93686,940.9615C-143.79771,940.9498,-143.66823,940.90674,-143.5552,940.8395L-143.55664,940.8395L-45.91856,885.91223C-45.757305,885.82153,-45.628216,885.6829,-45.549152,885.5156L-45.54869,885.51465C-45.481956,885.3735,-45.453426,885.2172,-45.46595,885.0616C-53.06764,790.58765,-60.483738,695.66077,-44.83839,584.8259C-29.051277,472.98657,10.203453,345.0125,58.86991,242.91759C58.86993,242.91754,58.86995,242.91751,58.86997,242.91747L58.869926,242.91747C107.12982,141.67555,164.63289,65.91635,222.04013,-9.396333L222.03792,-9.396333C222.11972,-9.487327,222.18283,-9.595133,222.22194,-9.713858C222.30014,-9.951254,222.27525,-10.210563,222.1533,-10.428741L166.83945,-109.39131C166.68167,-109.67359,166.38356,-109.84848,166.06018,-109.84848 Z"/>
</g>
<g style="fill:rgb(0,0,0); fill-opacity:1.0; stroke-linejoin: miter">
<path d="M230.28809,182.47636C229.98865,182.47636,229.70914,182.62651,229.5438,182.87616C209.26807,213.49026,188.81302,245.35837,163.28023,305.5655C136.42538,368.89005,104.01874,463.41617,90.759544,553.59155L90.75955,553.59155C77.87585,641.2132,83.046364,724.84576,88.7533,808.6842C88.78518,809.15265,89.17445,809.5163,89.64397,809.5163L89.644035,809.5163C89.79736,809.5163,89.948105,809.47687,90.08174,809.4017L190.03212,753.17365L190.03224,753.17365C190.31332,753.0164,190.48878,752.7191,190.48906,752.3954C190.53542,699.66986,190.6926,646.74603,196.72156,592.2037C202.86987,536.58154,215.11891,479.30698,231.40839,427.75116C247.63197,376.4039,267.85648,330.75812,288.02536,285.29132L288.0225,285.29132C288.04602,285.25043,288.06644,285.20746,288.0834,285.1627C288.17712,284.9156,288.15652,284.63965,288.02716,284.40918L231.06886,182.93214C230.91086,182.65065,230.6132,182.47636,230.29039,182.47636 Z"/>
</g>
<g style="fill:rgb(0,0,0); fill-opacity:1.0; stroke-linejoin: miter">
<path d="M420.95734,346.1981C420.78372,346.1981,420.6139,346.24872,420.4686,346.34375C393.23117,364.16302,366.6985,382.12665,346.303,408.47638C324.89102,436.13928,310.15228,473.19507,304.5566,506.23932C299.32538,537.1314,302.0784,564.51355,305.39096,592.0261C305.44525,592.4769,305.82812,592.8122,306.2766,592.8122C306.29453,592.8122,306.3126,592.81165,306.33072,592.81055C306.46915,592.80225,306.59866,592.7627,306.71252,592.69904L306.71042,592.69904L369.75787,557.7151L369.75995,557.7151C370.0197,557.57166,370.19617,557.30475,370.21872,556.99927C371.89407,534.3143,373.75238,511.22784,381.29236,490.87247C389.0817,469.8437,402.8436,451.9094,416.51157,437.9278C429.05826,425.09332,441.6324,415.48596,454.0621,406.25348L454.05756,406.25348C454.21347,406.16064,454.33945,406.02127,454.41553,405.85162C454.531,405.5941,454.5179,405.29715,454.38022,405.05078L421.7408,346.65527C421.58304,346.373,421.28494,346.1981,420.96155,346.1981 Z"/>
</g>
<g style="fill:rgb(255,255,255); fill-opacity:1.0; stroke-linejoin: miter">
<path d="M-5.6608534,-291.99493L-5.7444797,-291.991C-7.984603,-291.7805,-10.244934,-291.55728,-12.514854,-291.33026L-12.514979,-291.33026C-12.662016,-291.32266,-12.800407,-291.2794,-12.9210415,-291.20844L-12.921171,-291.20844L-217.00137,-175.97237L-217.00122,-175.97229L-217.00339,-175.97229C-217.00404,-175.97192,-217.00461,-175.9716,-217.00488,-175.97145L-217.00795,-175.96971L-217.00853,-175.96939L-768.23645,133.20741C-768.35266,133.2726,-768.44965,133.36081,-768.5239,133.46379L-768.5316,133.46379C-783.2236,148.3906,-797.0513,162.66074,-801.7131,179.0359C-806.38306,195.43813,-801.9583,214.32594,-797.148,234.22908C-797.115,234.36577,-797.0519,234.48804,-796.96704,234.59007L-796.97504,234.59007L-372.2782,989.7696C-372.11716,990.05597,-371.8163,990.22534,-371.49924,990.22534C-371.4241,990.22534,-371.34802,990.2158,-371.2727,990.1961C-370.87955,990.09314,-370.60532,989.7379,-370.60532,989.3315L-370.60532,989.3305C-370.60532,989.2767,-370.6102,989.22296,-370.61987,989.17C-391.1776,876.574,-411.1965,764.3623,-415.32852,669.032C-419.62338,569.94385,-406.75748,489.1611,-391.84824,410.42703C-376.93265,331.65997,-359.9007,254.57867,-313.06827,153.7109C-313.0681,153.71057,-313.06796,153.71024,-313.0678,153.7099L-313.0682,153.7099C-266.2881,52.953827,-189.78943,-71.50474,-132.09187,-150.70999C-78.58476,-224.16255,-41.188972,-258.77338,-5.071668,-290.42792C-4.8780274,-290.59763,-4.766981,-290.84262,-4.766981,-291.1001L-4.766981,-291.1011C-4.766981,-291.59476,-5.167156,-291.99493,-5.6607966,-291.99493 Z"/>
</g>
<g style="fill:rgb(255,255,255); fill-opacity:1.0; stroke-linejoin: miter">
<path d="M112.771194,-205.18742C112.51913,-205.18742,112.278786,-205.081,112.10937,-204.89435C17.842728,-101.04215,-75.798004,2.998108,-144.65146,142.42442C-214.48132,283.8277,-258.86307,461.745,-271.36716,611.28143C-283.65482,758.22986,-265.16245,877.76324,-246.09511,997.14557C-246.02536,997.5822,-245.6484,997.8984,-245.21323,997.8984C-245.18956,997.8984,-245.16573,997.89746,-245.14175,997.89557C-245.0077,997.88495,-244.8825,997.8451,-244.7722,997.7826L-244.77425,997.7826L-150.58722,944.7969L-150.5402,944.7685L-150.5387,944.7675C-150.23895,944.5737,-150.08322,944.2202,-150.14256,943.8683C-166.80754,845.03864,-183.26913,745.6223,-172.0957,616.8995C-160.82306,487.0334,-121.4265,327.33624,-60.56897,199.886C-0.15918967,73.373436,81.35808,-21.262245,162.76799,-115.35685L162.76636,-115.35685C163.04053,-115.63354,163.10934,-116.06712,162.91112,-116.421776L113.55253,-204.7297C113.394554,-205.01233,113.09609,-205.18742,112.772316,-205.18742 Z"/>
</g>
<g style="fill:rgb(255,255,255); fill-opacity:1.0; stroke-linejoin: miter">
<path d="M225.39922,-3.6814687C225.1203,-3.6814687,224.85739,-3.55127,224.68832,-3.3294363C167.92882,71.14736,111.521706,145.90501,64.09143,245.40742L64.090965,245.40742C15.668217,346.99152,-23.40895,474.3994,-39.11075,585.63446C-54.465828,694.41315,-47.48014,787.7844,-39.98019,881.1166C-39.942875,881.58093,-39.555126,881.9388,-39.08925,881.9388L-39.08917,881.9388C-38.935654,881.9388,-38.784725,881.89923,-38.65093,881.824L82.773125,813.5155C82.8662,813.46313,82.94915,813.39453,83.01802,813.3129L83.018845,813.31195C83.168434,813.13464,83.24324,812.9061,83.227455,812.6747C77.43032,727.6914,71.86638,642.3208,85.03667,552.7501C98.39187,461.9218,130.98631,366.89984,157.95488,303.30713C184.96732,239.61098,206.40019,207.29813,227.76535,175.09068L227.76537,175.09068C227.91747,174.86139,228.09515,174.66252,228.29135,174.49477L228.28906,174.49477C228.34454,174.45447,228.39537,174.40779,228.44044,174.35556C228.98515,173.72438,229.78674,173.35095,230.63011,173.35095C230.89565,173.35095,231.16673,173.38794,231.43701,173.4663L231.46439,173.47368L231.46207,173.47368C232.17986,173.68878,232.78642,174.17422,233.15355,174.82828L294.1872,283.566C294.8561,284.75775,294.59024,286.22275,293.6244,287.1107C293.50815,287.21756,293.4251,287.3503,293.3787,287.49414L293.37576,287.49414C273.1723,333.0399,253.05345,378.44464,236.92404,429.49387C220.74716,480.69327,208.5773,537.59686,202.47096,592.8392C196.64273,645.56537,196.33308,696.8033,196.2776,748.13104C196.27725,748.4488,196.44559,748.7428,196.71977,748.9033C196.85916,748.9849,197.01526,749.0258,197.17143,749.0258C197.32245,749.0258,197.47353,748.9876,197.60966,748.911L538.39856,557.1936C538.82794,556.952,538.9809,556.40857,538.74054,555.9785L458.1063,411.7159C457.98166,411.49295,457.7676,411.33395,457.51813,411.27908L457.51355,411.27808C457.44992,411.26407,457.38556,411.2572,457.32153,411.2572C457.131,411.2572,456.9436,411.31815,456.78802,411.43387C444.63663,420.47327,432.62738,429.7171,420.64792,441.97134C407.3038,455.62177,394.12442,472.88318,386.7166,492.88174C379.28644,512.9407,377.57068,535.9395,375.83728,559.46173C375.76562,560.43384,375.20886,561.3047,374.35648,561.7777L304.59967,600.48566L304.5997,600.48566C304.16394,600.7274,303.68036,600.8489,303.1965,600.8489C302.7468,600.8489,302.29575,600.7438,301.88315,600.5334L301.88318,600.5334C301.02612,600.0964,300.4425,599.2619,300.32617,598.30676L300.32602,598.3056L300.32153,598.26917L300.32166,598.2701L300.3039,598.1245L300.28616,597.9792C296.7249,568.7384,293.13165,539.06213,298.85333,505.2735C304.5852,471.42505,319.65704,433.45102,341.72876,404.9357C362.8713,377.62088,390.35257,359.12332,417.68146,341.25546L417.67728,341.25546C417.85388,341.1618,417.99603,341.01047,418.07773,340.82333C418.1895,340.56723,418.17508,340.2736,418.03876,340.0297L226.18169,-3.2237432C226.02371,-3.50637,225.72525,-3.6814687,225.40147,-3.6814687 Z"/>
</g>
</g>
</svg>